name Walk10.mot
datacolumns 19
datarows 25
range 2.13000000 2.25000000
endheader

                time	   L_ground_force_vx	   L_ground_force_vy	   L_ground_force_vz	   L_ground_force_px	   L_ground_force_py	   L_ground_force_pz	   R_ground_force_vx	   R_ground_force_vy	   R_ground_force_vz	   R_ground_force_px	   R_ground_force_py	   R_ground_force_pz	   L_ground_torque_x	   L_ground_torque_y	   L_ground_torque_z	   R_ground_torque_x	   R_ground_torque_y	   R_ground_torque_z	
          2.13000000	         -0.00000000	         -0.00000000	          0.00000000	          0.00000000	          0.00000000	         -0.00000000	         -1.29649275	         -6.08593780	          0.31106827	          0.02833980	          0.00000000	          0.00729588	          0.00000000	         -0.00000000	          0.00000000	          0.00000000	          0.28785715	          0.00000000	
          2.13500000	          0.00000000	          0.00000000	          0.00000000	          0.00000000	          0.00000000	         -0.00000000	         -1.37888765	         -6.34353396	          0.16043242	          0.00903926	          0.00000000	          0.00212331	          0.00000000	         -0.00000000	          0.00000000	          0.00000000	          0.30773389	          0.00000000	
          2.14000000	          0.00000000	          0.00000000	          0.00000000	          0.00000000	          0.00000000	         -0.00000000	         -1.32267256	         -6.00702855	          0.05114430	         -0.00405270	          0.00000000	         -0.00136169	          0.00000000	         -0.00000000	          0.00000000	          0.00000000	          0.29614242	          0.00000000	
          2.14500000	          0.00000000	          0.00000000	         -0.00000000	          0.00000000	          0.00000000	         -0.00000000	         -1.18201550	         -5.31615083	         -0.02298494	         -0.01212780	          0.00000000	         -0.00348885	          0.00000000	         -0.00000000	          0.00000000	          0.00000000	          0.26528775	          0.00000000	
          2.15000000	          0.00000000	          0.00000000	         -0.00000000	         -0.00000000	          0.00000000	          0.00000000	         -0.99833172	         -4.45266107	         -0.06870476	         -0.01634704	          0.00000000	         -0.00457704	          0.00000000	          0.00000000	          0.00000000	          0.00000000	          0.22452020	          0.00000000	
          2.15500000	          0.00000000	          0.00000000	         -0.00000000	         -0.00000000	          0.00000000	          0.00000000	         -0.80158291	         -3.54677017	         -0.09259028	         -0.01775991	          0.00000000	         -0.00491288	          0.00000000	          0.00000000	          0.00000000	          0.00000000	          0.18061992	          0.00000000	
          2.16000000	          0.00000000	          0.00000000	         -0.00000000	         -0.00000000	          0.00000000	          0.00000000	         -0.61201618	         -2.68533325	         -0.10058483	         -0.01726136	          0.00000000	         -0.00473971	          0.00000000	          0.00000000	          0.00000000	          0.00000000	          0.13818268	          0.00000000	
          2.16500000	          0.00000000	          0.00000000	         -0.00000000	         -0.00000000	          0.00000000	          0.00000000	         -0.44204764	         -1.92053304	         -0.09775653	         -0.01557648	          0.00000000	         -0.00425380	          0.00000000	          0.00000000	          0.00000000	          0.00000000	          0.10003991	          0.00000000	
          2.17000000	          0.00000000	          0.00000000	         -0.00000000	         -0.00000000	          0.00000000	          0.00000000	         -0.29808948	         -1.27819055	         -0.08821144	         -0.01326409	          0.00000000	         -0.00360577	          0.00000000	          0.00000000	          0.00000000	          0.00000000	          0.06766775	          0.00000000	
          2.17500000	          0.00000000	          0.00000000	         -0.00000000	         -0.00000000	          0.00000000	          0.00000000	         -0.18219663	         -0.76517933	         -0.07511390	         -0.01073217	          0.00000000	         -0.00290503	          0.00000000	          0.00000000	          0.00000000	          0.00000000	          0.04155641	          0.00000000	
          2.18000000	          0.00000000	          0.00000000	         -0.00000000	         -0.00000000	          0.00000000	          0.00000000	         -0.09346724	         -0.37567874	         -0.06077410	         -0.00825972	          0.00000000	         -0.00222590	          0.00000000	          0.00000000	          0.00000000	          0.00000000	          0.02152510	          0.00000000	
          2.18500000	          0.00000000	          0.00000000	         -0.00000000	         -0.00000000	          0.00000000	          0.00000000	         -0.02917467	         -0.09618792	         -0.04677177	         -0.00602093	          0.00000000	         -0.00161435	          0.00000000	          0.00000000	          0.00000000	          0.00000000	          0.00697704	          0.00000000	
          2.19000000	          0.00000000	          0.00000000	         -0.00000000	         -0.00000000	          0.00000000	          0.00000000	          0.01436227	          0.09065144	         -0.03409326	         -0.00410906	          0.00000000	         -0.00109450	          0.00000000	          0.00000000	          0.00000000	          0.00000000	         -0.00290416	          0.00000000	
          2.19500000	          0.00000000	          0.00000000	         -0.00000000	         -0.00000000	          0.00000000	          0.00000000	          0.04114579	          0.20329847	         -0.02326642	         -0.00255804	          0.00000000	         -0.00067457	          0.00000000	          0.00000000	          0.00000000	          0.00000000	         -0.00901109	          0.00000000	
          2.20000000	          0.00000000	          0.00000000	         -0.00000000	         -0.00000000	          0.00000000	          0.00000000	          0.05506740	          0.25945837	         -0.01448328	         -0.00136109	          0.00000000	         -0.00035192	          0.00000000	          0.00000000	          0.00000000	          0.00000000	         -0.01221468	          0.00000000	
          2.20500000	         -0.00000000	         -0.00000000	         -0.00000000	         -0.00000000	          0.00000000	          0.00000000	          0.05963990	          0.27495261	         -0.00770537	         -0.00048586	          0.00000000	         -0.00011718	          0.00000000	          0.00000000	          0.00000000	          0.00000000	         -0.01330304	          0.00000000	
          2.21000000	         -0.00000000	         -0.00000000	         -0.00000000	         -0.00000000	          0.00000000	          0.00000000	          0.05785536	          0.26314334	         -0.00274943	          0.00011383	          0.00000000	          0.00004262	          0.00000000	          0.00000000	          0.00000000	          0.00000000	         -0.01294888	          0.00000000	
          2.21500000	         -0.00000000	         -0.00000000	         -0.00000000	         -0.00000000	          0.00000000	          0.00000000	          0.05213531	          0.23475883	          0.00064617	          0.00048940	          0.00000000	          0.00014172	          0.00000000	          0.00000000	          0.00000000	          0.00000000	         -0.01169767	          0.00000000	
          2.22000000	         -0.00000000	         -0.00000000	          0.00000000	         -0.00000000	          0.00000000	         -0.00000000	          0.04434388	          0.19798980	          0.00277260	          0.00069154	          0.00000000	          0.00019407	          0.00000000	         -0.00000000	          0.00000000	          0.00000000	         -0.00997014	          0.00000000	
          2.22500000	         -0.00000000	         -0.00000000	          0.00000000	          0.00000000	          0.00000000	         -0.00000000	          0.03584032	          0.15875194	          0.00391695	          0.00076647	          0.00000000	          0.00021229	          0.00000000	         -0.00000000	          0.00000000	          0.00000000	         -0.00807379	          0.00000000	
          2.23000000	         -0.00000000	         -0.00000000	          0.00000000	          0.00000000	          0.00000000	         -0.00000000	          0.02755262	          0.12103410	          0.00434102	          0.00075391	          0.00000000	          0.00020719	          0.00000000	         -0.00000000	          0.00000000	          0.00000000	         -0.00621917	          0.00000000	
          2.23500000	         -0.00000000	         -0.00000000	          0.00000000	          0.00000000	          0.00000000	         -0.00000000	          0.02005879	          0.08727405	          0.00426965	          0.00068623	          0.00000000	          0.00018753	          0.00000000	         -0.00000000	          0.00000000	          0.00000000	         -0.00453797	          0.00000000	
          2.24000000	         -0.00000000	         -0.00000000	          0.00000000	          0.00000000	          0.00000000	         -0.00000000	          0.01366674	          0.05872206	          0.00388620	          0.00058855	          0.00000000	          0.00016009	          0.00000000	         -0.00000000	          0.00000000	          0.00000000	         -0.00310095	          0.00000000	
          2.24500000	         -0.00000000	         -0.00000000	          0.00000000	          0.00000000	          0.00000000	         -0.00000000	          0.00848677	          0.03576801	          0.00333295	          0.00047937	          0.00000000	          0.00012983	          0.00000000	         -0.00000000	          0.00000000	          0.00000000	         -0.00193417	          0.00000000	
          2.25000000	         -0.00000000	         -0.00000000	          0.00000000	          0.00000000	          0.00000000	         -0.00000000	          0.00449375	          0.01821921	          0.00271457	          0.00037144	          0.00000000	          0.00010016	          0.00000000	         -0.00000000	          0.00000000	          0.00000000	         -0.00103297	          0.00000000	
